<svg width="18" height="18" viewBox="0 0 18 18" fill="none" xmlns="http://www.w3.org/2000/svg">
<path d="M11.3966 0.0408314L1.56861 0.774936C0.775918 0.844451 0.5 1.3684 0.5 1.99652V12.8936C0.5 13.3828 0.67166 13.8014 1.0861 14.3606L3.39631 17.3989C3.77582 17.8882 4.12093 17.9929 4.84562 17.9582L16.2585 17.2594C17.2235 17.1899 17.5 16.7355 17.5 15.9672V3.70793C17.5 3.31092 17.3449 3.19654 16.8884 2.85763L16.8097 2.80014L13.673 0.564779C12.914 0.00671202 12.6039 -0.0639447 11.3966 0.0408314ZM5.10375 3.50731C4.17187 3.57078 3.9605 3.58515 3.43124 3.14979L2.08552 2.06717C1.94872 1.92707 2.01738 1.75217 2.36196 1.71745L11.8098 1.01928C12.6032 0.949227 13.0164 1.22883 13.3267 1.47317L14.9471 2.66064C15.0163 2.6959 15.1887 2.90491 14.9814 2.90491L5.22454 3.49891L5.10375 3.50731ZM4.01734 15.8624V5.4552C4.01734 5.0007 4.15527 4.79115 4.56851 4.75582L15.7748 4.09231C16.1549 4.05759 16.3266 4.30186 16.3266 4.75582V15.0935C16.3266 15.548 16.2573 15.9324 15.6368 15.9672L4.91309 16.5959C4.29266 16.6307 4.01734 16.4217 4.01734 15.8624ZM14.6032 6.0132C14.6718 6.3276 14.6032 6.642 14.2923 6.67793L13.7755 6.7815V14.4653C13.3267 14.7096 12.9135 14.8492 12.5682 14.8492C12.0165 14.8492 11.8785 14.6743 11.4653 14.151L8.08532 8.77251V13.9761L9.15446 14.221C9.15446 14.221 9.15446 14.8498 8.29191 14.8498L5.91364 14.9893C5.84437 14.8492 5.91364 14.5001 6.15469 14.4306L6.77566 14.2563V7.37617L5.9137 7.30551C5.84438 6.99118 6.01663 6.53722 6.4998 6.50189L9.05153 6.32827L12.5683 11.7762V6.95646L11.6719 6.85222C11.6027 6.46717 11.8785 6.18756 12.2231 6.15344L14.6032 6.0132Z" fill="black"/>
</svg>
